<?xml version="1.0" encoding="utf-8"?>
<!-- Generator: Adobe Illustrator 16.0.0, SVG Export Plug-In . SVG Version: 6.00 Build 0)  -->
<!DOCTYPE svg PUBLIC "-//W3C//DTD SVG 1.1//EN" "http://www.w3.org/Graphics/SVG/1.1/DTD/svg11.dtd">
<svg version="1.1" id="Слой_1" xmlns="http://www.w3.org/2000/svg" xmlns:xlink="http://www.w3.org/1999/xlink" x="0px" y="0px"
	 width="100px" height="500px" viewBox="0 0 100 500" enable-background="new 0 0 100 500" xml:space="preserve">
<path fill="#222222" d="M15,26v1h-1v1h-1v1h-0.999v1h-1v-3H0v-1h11.001v-3h1v1H13v1h1v1H15z"/>
<path fill="#222222" d="M0,67v-1h1v-0.999h1V64h0.999v-1h1v3H15v1H3.999v3h-1v-1H2v-1H1v-1H0z"/>
<path fill="#8ACACE" d="M0,87v-1h1v-0.999h1V84h0.999v-1h1v3H15v1H3.999v3h-1v-1H2v-1H1v-1H0z"/>
<path fill="#8ACACE" d="M15,46v1h-1v1h-1v1h-0.999v1h-1v-3H0v-1h11.001v-3h1v1H13v1h1v1H15z"/>
<path fill="#FA7D6C" d="M15,186v1h-1v1h-1v1h-0.999v1h-1v-3H0v-1h11.001v-3h1v1H13v1h1v1H15z"/>
<path fill="#FA7D6C" d="M0,207v-1h1v-1h1v-1h0.999v-1h1v3H15v1H3.999v3h-1v-1H2v-1H1v-1H0z"/>
<path fill="#222222" d="M56.961,1.163c-0.095-0.414-0.386-0.77-0.754-0.975C55.977,0.076,55.727,0,55.455,0h-13.91
	c-0.271,0-0.522,0.076-0.753,0.188c-0.387,0.206-0.656,0.562-0.753,0.975C40.019,1.275,40,1.388,40,1.5v8.999
	C40,11.323,40.695,12,41.545,12h13.91C56.307,12,57,11.323,57,10.499V1.5C57,1.388,56.98,1.275,56.961,1.163z M54.18,1.5L48.5,5.682
	L42.82,1.5H54.18z M55.455,10.499h-13.91V2.456l6.491,4.78c0.135,0.097,0.309,0.151,0.463,0.151c0.155,0,0.328-0.055,0.463-0.151
	l6.492-4.78L55.455,10.499L55.455,10.499z"/>
<path fill="#8ACACE" d="M76.961,1.163c-0.095-0.414-0.386-0.77-0.754-0.975C75.977,0.076,75.727,0,75.455,0h-13.91
	c-0.271,0-0.521,0.076-0.753,0.188c-0.388,0.206-0.655,0.562-0.753,0.975C60.02,1.275,60,1.388,60,1.5v8.999
	C60,11.323,60.695,12,61.545,12h13.91C76.307,12,77,11.323,77,10.499V1.5C77,1.388,76.98,1.275,76.961,1.163z M74.18,1.5L68.5,5.682
	L62.82,1.5H74.18z M75.455,10.499h-13.91V2.456l6.492,4.78c0.135,0.097,0.309,0.151,0.463,0.151s0.328-0.055,0.463-0.151l6.492-4.78
	V10.499L75.455,10.499z"/>
<path fill="#FA7D6C" d="M46.961,161.163c-0.095-0.414-0.386-0.771-0.754-0.976c-0.23-0.111-0.48-0.187-0.752-0.187h-13.91
	c-0.271,0-0.521,0.076-0.753,0.188c-0.388,0.207-0.655,0.563-0.753,0.976C30.02,161.275,30,161.389,30,161.5v8.999
	c0,0.824,0.695,1.501,1.545,1.501h13.91c0.852,0,1.545-0.677,1.545-1.501V161.5C47,161.389,46.98,161.275,46.961,161.163z
	 M44.18,161.5l-5.68,4.182l-5.68-4.182H44.18z M45.455,170.499h-13.91v-8.043l6.492,4.78c0.135,0.097,0.309,0.15,0.463,0.15
	s0.328-0.055,0.463-0.15l6.492-4.78V170.499L45.455,170.499z"/>
<path d="M11.524,10.476C12.38,9.43,12.954,8,12.954,6.477C12.954,2.953,10.095,0,6.477,0C2.857,0,0,2.857,0,6.477
	c0,3.524,2.857,6.477,6.477,6.477c1.523,0,2.953-0.574,3.999-1.43L12.954,14L14,12.954L11.524,10.476z M1.524,6.477
	c0-2.763,2.19-4.953,4.953-4.953c2.762,0,4.954,2.19,4.954,4.953c0,2.762-2.191,4.954-4.954,4.954S1.524,9.239,1.524,6.477z"/>
<path fill="#7F7F7F" d="M51.523,110.476c0.855-1.046,1.431-2.476,1.431-3.999c0-3.524-2.859-6.477-6.477-6.477
	c-3.62,0-6.477,2.857-6.477,6.477c0,3.524,2.857,6.477,6.477,6.477c1.523,0,2.953-0.574,3.999-1.43L52.954,114L54,112.954
	L51.523,110.476z M41.524,106.477c0-2.763,2.19-4.953,4.953-4.953c2.762,0,4.955,2.19,4.955,4.953c0,2.762-2.189,4.954-4.955,4.954
	S41.524,109.239,41.524,106.477z"/>
<path fill="#8ACACE" d="M31.524,10.476C32.38,9.43,32.954,8,32.954,6.477C32.954,2.953,30.095,0,26.477,0
	C22.857,0,20,2.857,20,6.477c0,3.524,2.857,6.477,6.477,6.477c1.523,0,2.953-0.574,3.999-1.43L32.954,14L34,12.954L31.524,10.476z
	 M21.524,6.477c0-2.763,2.19-4.953,4.953-4.953c2.762,0,4.954,2.19,4.954,4.953c0,2.762-2.191,4.954-4.954,4.954
	S21.524,9.239,21.524,6.477z"/>
<path fill="#8ACACE" d="M11.524,150.476c0.856-1.046,1.43-2.476,1.43-3.999c0-3.524-2.859-6.477-6.477-6.477
	C2.857,140,0,142.856,0,146.477c0,3.523,2.857,6.476,6.477,6.476c1.523,0,2.953-0.574,3.999-1.43L12.954,154L14,152.953
	L11.524,150.476z M1.524,146.477c0-2.763,2.19-4.953,4.953-4.953c2.762,0,4.954,2.19,4.954,4.953c0,2.762-2.191,4.954-4.954,4.954
	S1.524,149.239,1.524,146.477z"/>
<path fill="#FA7D6C" d="M11.524,170.477c0.856-1.046,1.43-2.477,1.43-3.999c0-3.524-2.859-6.478-6.477-6.478
	C2.857,160,0,162.857,0,166.478c0,3.524,2.857,6.477,6.477,6.477c1.523,0,2.953-0.574,3.999-1.43l2.478,2.477L14,172.954
	L11.524,170.477z M1.524,166.478c0-2.763,2.19-4.953,4.953-4.953c2.762,0,4.954,2.19,4.954,4.953s-2.191,4.954-4.954,4.954
	S1.524,169.24,1.524,166.478z"/>
<path fill="#CBA26D" d="M15,246v1h-1v1h-1v1h-0.999v1h-1v-3H0v-1h11.001v-3h1v1H13v1h1v1H15z"/>
<path fill="#CBA26D" d="M0,267v-1h1v-1h1v-1h0.999v-1h1v3H15v1H3.999v3h-1v-1H2v-1H1v-1H0z"/>
<path fill="#CBA26D" d="M46.961,221.163c-0.095-0.414-0.386-0.771-0.754-0.976c-0.23-0.111-0.48-0.188-0.752-0.188h-13.91
	c-0.271,0-0.521,0.076-0.753,0.188c-0.388,0.207-0.655,0.563-0.753,0.976C30.02,221.275,30,221.389,30,221.5v8.999
	c0,0.824,0.695,1.501,1.545,1.501h13.91c0.852,0,1.545-0.677,1.545-1.501V221.5C47,221.389,46.98,221.275,46.961,221.163z
	 M44.18,221.5l-5.68,4.182l-5.68-4.182H44.18z M45.455,230.499h-13.91v-8.043l6.492,4.78c0.135,0.097,0.309,0.15,0.463,0.15
	s0.328-0.055,0.463-0.15l6.492-4.78V230.499L45.455,230.499z"/>
<path fill="#CBA26D" d="M11.524,230.477c0.856-1.046,1.43-2.477,1.43-3.999c0-3.524-2.859-6.478-6.477-6.478
	C2.857,220,0,222.857,0,226.478c0,3.524,2.857,6.477,6.477,6.477c1.523,0,2.953-0.574,3.999-1.43l2.478,2.477L14,232.954
	L11.524,230.477z M1.524,226.478c0-2.763,2.19-4.953,4.953-4.953c2.762,0,4.954,2.19,4.954,4.953s-2.191,4.954-4.954,4.954
	S1.524,229.24,1.524,226.478z"/>
<path fill="#50549F" d="M15,306v1h-1v1h-1v1h-0.999v1h-1v-3H0v-1h11.001v-3h1v1H13v1h1v1H15z"/>
<path fill="#50549F" d="M0,327v-1h1v-1h1v-1h0.999v-1h1v3H15v1H3.999v3h-1v-1H2v-1H1v-1H0z"/>
<path fill="#50549F" d="M46.961,281.163c-0.095-0.414-0.386-0.771-0.754-0.976c-0.23-0.111-0.48-0.188-0.752-0.188h-13.91
	c-0.271,0-0.521,0.076-0.753,0.188c-0.388,0.207-0.655,0.563-0.753,0.976C30.02,281.275,30,281.389,30,281.5v8.999
	c0,0.824,0.695,1.501,1.545,1.501h13.91c0.852,0,1.545-0.677,1.545-1.501V281.5C47,281.389,46.98,281.275,46.961,281.163z
	 M44.18,281.5l-5.68,4.182l-5.68-4.182H44.18z M45.455,290.499h-13.91v-8.043l6.492,4.78c0.135,0.097,0.309,0.149,0.463,0.149
	s0.328-0.055,0.463-0.149l6.492-4.78V290.499L45.455,290.499z"/>
<path fill="#50549F" d="M11.524,290.477c0.856-1.045,1.43-2.477,1.43-3.998c0-3.524-2.859-6.479-6.477-6.479
	C2.857,280,0,282.857,0,286.479c0,3.523,2.857,6.477,6.477,6.477c1.523,0,2.953-0.574,3.999-1.43l2.478,2.477L14,292.954
	L11.524,290.477z M1.524,286.479c0-2.764,2.19-4.953,4.953-4.953c2.762,0,4.954,2.189,4.954,4.953c0,2.763-2.191,4.953-4.954,4.953
	S1.524,289.24,1.524,286.479z"/>
<path fill="#F49364" d="M15,366v1h-1v1h-1v1h-0.999v1h-1v-3H0v-1h11.001v-3h1v1H13v1h1v1H15z"/>
<path fill="#F49364" d="M0,387v-1h1v-1h1v-1h0.999v-1h1v3H15v1H3.999v3h-1v-1H2v-1H1v-1H0z"/>
<path fill="#F49364" d="M46.961,341.163c-0.095-0.414-0.386-0.771-0.754-0.976c-0.23-0.111-0.48-0.188-0.752-0.188h-13.91
	c-0.271,0-0.521,0.076-0.753,0.188c-0.388,0.207-0.655,0.563-0.753,0.976C30.02,341.275,30,341.389,30,341.5v8.999
	c0,0.824,0.695,1.501,1.545,1.501h13.91c0.852,0,1.545-0.677,1.545-1.501V341.5C47,341.389,46.98,341.275,46.961,341.163z
	 M44.18,341.5l-5.68,4.182l-5.68-4.182H44.18z M45.455,350.499h-13.91v-8.043l6.492,4.78c0.135,0.097,0.309,0.149,0.463,0.149
	s0.328-0.055,0.463-0.149l6.492-4.78V350.499L45.455,350.499z"/>
<path fill="#F49364" d="M11.524,350.477c0.856-1.045,1.43-2.477,1.43-3.998c0-3.524-2.859-6.479-6.477-6.479
	C2.857,340,0,342.857,0,346.479c0,3.523,2.857,6.477,6.477,6.477c1.523,0,2.953-0.574,3.999-1.43l2.478,2.477L14,352.954
	L11.524,350.477z M1.524,346.479c0-2.764,2.19-4.953,4.953-4.953c2.762,0,4.954,2.189,4.954,4.953c0,2.763-2.191,4.953-4.954,4.953
	S1.524,349.24,1.524,346.479z"/>
<path fill="#4A4A4A" d="M34,39.5l6.487-6.5L42,34.518L37.027,39.5L42,44.482L40.487,46L34,39.5L34,39.5L34,39.5z"/>
<path fill="#4A4A4A" d="M84,39.5L77.514,46L76,44.482l4.973-4.982L76,34.518L77.514,33L84,39.5L84,39.5L84,39.5z"/>
<path fill="#8ACACE" d="M87.488,11.062c-1.688,0-3.043-1.42-3.043-3.181c0-1.763,1.354-3.182,3.043-3.182
	c1.685,0,3.041,1.419,3.041,3.182C90.529,9.641,89.173,11.062,87.488,11.062z M87.488,5.677c-1.17,0-2.107,0.979-2.107,2.203
	c0,1.223,0.938,2.202,2.107,2.202c1.169,0,2.107-0.979,2.107-2.202C89.598,6.657,88.658,5.677,87.488,5.677z M87.488,0
	C83.346,0,80,3.549,80,7.88c0,0.783,0.117,1.565,0.327,2.276c0.866,4.306,6.084,10.792,6.81,11.672
	C87.23,21.952,87.348,22,87.488,22c0.021,0,0.021,0,0.047,0c0.117-0.024,0.234-0.072,0.326-0.197l0.021-0.048
	c1.593-2.008,5.99-7.755,6.787-11.647c0.211-0.71,0.33-1.494,0.33-2.277C94.979,3.549,91.605,0,87.488,0z M87.488,20.775
	c-1.475-1.858-3.182-4.281-4.469-6.558c-0.914-1.64-1.615-3.182-1.826-4.405c-0.164-0.611-0.258-1.247-0.258-1.933
	c0-0.294,0.021-0.587,0.047-0.857c0.396-3.401,3.158-6.043,6.506-6.043c3.347,0,6.104,2.643,6.507,6.069
	c0.022,0.269,0.046,0.563,0.046,0.856c0,0.636-0.072,1.249-0.234,1.835c-0.188,1.174-0.865,2.741-1.824,4.455
	C90.811,16.276,89.195,18.601,87.488,20.775z"/>
<path fill="#FA7D6C" d="M67.488,171.062c-1.688,0-3.043-1.42-3.043-3.181c0-1.763,1.354-3.182,3.043-3.182
	c1.685,0,3.041,1.419,3.041,3.182C70.529,169.641,69.173,171.062,67.488,171.062z M67.488,165.677c-1.17,0-2.107,0.979-2.107,2.203
	c0,1.223,0.938,2.202,2.107,2.202c1.169,0,2.107-0.979,2.107-2.202C69.598,166.657,68.658,165.677,67.488,165.677z M67.488,160
	c-4.143,0-7.488,3.549-7.488,7.88c0,0.783,0.117,1.565,0.327,2.276c0.866,4.306,6.084,10.792,6.81,11.672
	c0.094,0.124,0.211,0.172,0.352,0.172c0.021,0,0.021,0,0.047,0c0.117-0.024,0.234-0.072,0.326-0.197l0.021-0.048
	c1.593-2.008,5.99-7.755,6.787-11.647c0.211-0.71,0.33-1.494,0.33-2.277C74.979,163.549,71.605,160,67.488,160z M67.488,180.775
	c-1.475-1.858-3.182-4.281-4.469-6.558c-0.914-1.64-1.615-3.182-1.826-4.405c-0.164-0.611-0.258-1.247-0.258-1.933
	c0-0.294,0.021-0.587,0.047-0.857c0.396-3.401,3.158-6.043,6.506-6.043c3.347,0,6.104,2.643,6.507,6.069
	c0.022,0.269,0.046,0.563,0.046,0.856c0,0.636-0.072,1.249-0.234,1.835c-0.188,1.174-0.865,2.741-1.824,4.455
	C70.811,176.276,69.195,178.601,67.488,180.775z"/>
<path fill="#CBA26D" d="M67.488,231.062c-1.688,0-3.043-1.42-3.043-3.181c0-1.763,1.354-3.182,3.043-3.182
	c1.685,0,3.041,1.419,3.041,3.182C70.529,229.641,69.173,231.062,67.488,231.062z M67.488,225.677c-1.17,0-2.107,0.979-2.107,2.203
	c0,1.223,0.938,2.202,2.107,2.202c1.169,0,2.107-0.979,2.107-2.202C69.598,226.657,68.658,225.677,67.488,225.677z M67.488,220
	c-4.143,0-7.488,3.549-7.488,7.88c0,0.783,0.117,1.565,0.327,2.276c0.866,4.306,6.084,10.792,6.81,11.672
	c0.094,0.124,0.211,0.172,0.352,0.172c0.021,0,0.021,0,0.048,0c0.116-0.024,0.233-0.072,0.325-0.197l0.021-0.048
	c1.592-2.008,5.99-7.755,6.787-11.647c0.211-0.71,0.33-1.494,0.33-2.277C74.979,223.549,71.605,220,67.488,220z M67.488,240.775
	c-1.475-1.858-3.182-4.281-4.469-6.558c-0.914-1.64-1.615-3.182-1.826-4.405c-0.164-0.611-0.258-1.247-0.258-1.933
	c0-0.294,0.021-0.587,0.047-0.857c0.396-3.401,3.158-6.043,6.506-6.043c3.347,0,6.104,2.643,6.507,6.069
	c0.022,0.269,0.046,0.563,0.046,0.856c0,0.636-0.072,1.249-0.234,1.835c-0.188,1.174-0.865,2.741-1.824,4.455
	C70.811,236.276,69.195,238.601,67.488,240.775z"/>
<path fill="#50549F" d="M67.488,291.063c-1.688,0-3.043-1.42-3.043-3.182c0-1.764,1.354-3.182,3.043-3.182
	c1.685,0,3.041,1.418,3.041,3.182C70.529,289.641,69.173,291.063,67.488,291.063z M67.488,285.676c-1.17,0-2.107,0.98-2.107,2.203
	c0,1.225,0.938,2.203,2.107,2.203c1.169,0,2.107-0.979,2.107-2.203C69.598,286.656,68.658,285.676,67.488,285.676z M67.488,280
	c-4.143,0-7.488,3.549-7.488,7.879c0,0.783,0.117,1.564,0.327,2.277c0.866,4.305,6.084,10.791,6.81,11.672
	c0.094,0.123,0.211,0.172,0.352,0.172c0.021,0,0.021,0,0.048,0c0.116-0.023,0.233-0.072,0.325-0.197l0.021-0.049
	c1.592-2.008,5.99-7.754,6.787-11.646c0.211-0.709,0.33-1.494,0.33-2.276C74.979,283.549,71.605,280,67.488,280z M67.488,300.773
	c-1.475-1.857-3.182-4.279-4.469-6.558c-0.914-1.641-1.615-3.182-1.826-4.405c-0.164-0.609-0.258-1.246-0.258-1.933
	c0-0.295,0.021-0.588,0.047-0.856c0.396-3.4,3.158-6.043,6.506-6.043c3.347,0,6.104,2.643,6.507,6.067
	c0.022,0.271,0.046,0.563,0.046,0.856c0,0.636-0.072,1.248-0.234,1.834c-0.188,1.175-0.865,2.742-1.824,4.455
	C70.811,296.275,69.195,298.602,67.488,300.773z"/>
<path fill="#F49364" d="M67.488,351.063c-1.688,0-3.043-1.42-3.043-3.182c0-1.764,1.354-3.182,3.043-3.182
	c1.685,0,3.041,1.418,3.041,3.182C70.529,349.641,69.173,351.063,67.488,351.063z M67.488,345.676c-1.17,0-2.107,0.98-2.107,2.203
	c0,1.225,0.938,2.203,2.107,2.203c1.169,0,2.107-0.979,2.107-2.203C69.598,346.656,68.658,345.676,67.488,345.676z M67.488,340
	c-4.143,0-7.488,3.549-7.488,7.879c0,0.783,0.117,1.564,0.327,2.277c0.866,4.305,6.084,10.791,6.81,11.672
	c0.094,0.123,0.211,0.172,0.352,0.172c0.021,0,0.021,0,0.048,0c0.116-0.023,0.233-0.072,0.325-0.197l0.021-0.049
	c1.592-2.008,5.99-7.754,6.787-11.646c0.211-0.709,0.33-1.494,0.33-2.276C74.979,343.549,71.605,340,67.488,340z M67.488,360.773
	c-1.475-1.857-3.182-4.279-4.469-6.558c-0.914-1.641-1.615-3.182-1.826-4.405c-0.164-0.609-0.258-1.246-0.258-1.933
	c0-0.295,0.021-0.588,0.047-0.856c0.396-3.4,3.158-6.043,6.506-6.043c3.347,0,6.104,2.643,6.507,6.067
	c0.022,0.271,0.046,0.563,0.046,0.856c0,0.636-0.072,1.248-0.234,1.834c-0.188,1.175-0.865,2.742-1.824,4.455
	C70.811,356.275,69.195,358.602,67.488,360.773z"/>
<path fill="#141414" d="M17.25,116.554l15.645,15.695L32.146,133L16.5,117.306L0.75,133L0,132.249l15.75-15.695L0.106,100.752
	L0.855,100L16.5,115.802l15.75-15.695l0.75,0.752L17.25,116.554z"/>
<g>
	<path fill="#FFFFFF" d="M16.005,422C19.3,422,22,419.3,22,416.006c0-3.307-2.7-6.006-5.995-6.006C12.7,410,10,412.699,10,416.006
		C10,419.3,12.7,422,16.005,422L16.005,422z"/>
	<path fill="#222222" d="M14.23,417.206c0,0.17-0.106,0.202-0.202,0.106c-0.648-0.616-0.446-1.85-0.202-2.731
		c0.096-0.372-0.106-0.468-0.33-0.233c-0.627,0.669-0.956,1.371-0.882,2.349c0.181,2.285,1.945,3.284,4.06,3.008
		c1.35-0.17,2.104-1.169,2.498-2.158c0.266-0.658,0.308-2.114,0.032-3.39c-0.117-0.489-0.437-1.573-0.904-1.818
		c-0.553-0.287-1.7,0.203-2.157,0.553C14.9,413.848,14.209,415.729,14.23,417.206L14.23,417.206z"/>
</g>
<g>
	<path fill="#222222" d="M46.005,422C49.3,422,52,419.3,52,416.006c0-3.307-2.7-6.006-5.995-6.006C42.7,410,40,412.699,40,416.006
		C40,419.3,42.7,422,46.005,422L46.005,422z"/>
	<path fill="#FFFFFF" d="M44.23,417.206c0,0.17-0.106,0.202-0.202,0.106c-0.648-0.616-0.446-1.85-0.202-2.731
		c0.096-0.372-0.106-0.468-0.33-0.233c-0.627,0.669-0.956,1.371-0.882,2.349c0.181,2.285,1.945,3.284,4.06,3.008
		c1.35-0.17,2.104-1.169,2.498-2.158c0.266-0.658,0.308-2.114,0.032-3.39c-0.117-0.489-0.437-1.573-0.904-1.818
		c-0.553-0.287-1.7,0.203-2.157,0.553C44.9,413.848,44.209,415.729,44.23,417.206L44.23,417.206z"/>
</g>
<path id="Tree" fill="#222222" d="M50.368,451.443L50.368,451.443l-4.793-11.168l0,0C45.522,440.116,45.376,440,45.2,440
	c-0.175,0-0.319,0.113-0.374,0.269h-0.001l-4.79,11.171c-0.001,0.004-0.003,0.008-0.005,0.011l-0.005,0.013l0.002,0.002
	C40.012,451.508,40,451.553,40,451.6c0,0.222,0.18,0.4,0.4,0.4c0.008,0,0.014-0.004,0.022-0.004L40.425,452H44.8v-2.4l-1.2-0.8
	V448.4l1.2,0.8v-2h0.8v1.2l1.2-0.801v0.4l-1.2,0.8v0.8l2-0.8v0.4l-2,0.8l0.017,2H50c0.222,0,0.4-0.179,0.4-0.4
	C50.4,451.545,50.39,451.492,50.368,451.443z"/>
<path id="Tree_1_" fill="#FFFFFF" d="M21.368,451.443L21.368,451.443l-4.793-11.168l0,0C16.522,440.116,16.376,440,16.2,440
	c-0.175,0-0.319,0.113-0.374,0.269h-0.001l-4.79,11.171c-0.001,0.004-0.003,0.008-0.005,0.011l-0.005,0.013l0.002,0.002
	C11.012,451.508,11,451.553,11,451.6c0,0.222,0.18,0.4,0.4,0.4c0.008,0,0.014-0.004,0.022-0.004L11.425,452H15.8v-2.4l-1.2-0.8
	V448.4l1.2,0.8v-2h0.8v1.2l1.2-0.801v0.4l-1.2,0.8v0.8l2-0.8v0.4l-2,0.8l0.017,2H21c0.222,0,0.4-0.179,0.4-0.4
	C21.4,451.545,21.39,451.492,21.368,451.443z"/>
</svg>
